<svg width="209" height="43" viewBox="0 0 209 43" fill="none" xmlns="http://www.w3.org/2000/svg">
<rect width="209" height="43" rx="14" fill="#1A1F16"/>
<path d="M45.3117 17.4406C45.1727 17.3006 45.0073 17.1896 44.825 17.1139C44.6428 17.0383 44.4473 16.9996 44.25 17H41.25V16.25C41.25 14.8576 40.6969 13.5223 39.7123 12.5377C38.7277 11.5531 37.3924 11 36 11C34.6076 11 33.2723 11.5531 32.2877 12.5377C31.3031 13.5223 30.75 14.8576 30.75 16.25V17H27.75C27.3522 17 26.9706 17.158 26.6893 17.4393C26.408 17.7206 26.25 18.1022 26.25 18.5V28.625C26.25 30.4531 27.7969 32 29.625 32H42.375C43.2593 32.0003 44.1086 31.6545 44.7413 31.0367C45.0596 30.733 45.3132 30.3679 45.4865 29.9634C45.6599 29.559 45.7495 29.1236 45.75 28.6836V18.5C45.7506 18.3032 45.7122 18.1083 45.637 17.9264C45.5617 17.7446 45.4512 17.5795 45.3117 17.4406ZM32.25 16.25C32.25 15.2554 32.6451 14.3016 33.3483 13.5983C34.0516 12.8951 35.0054 12.5 36 12.5C36.9946 12.5 37.9484 12.8951 38.6517 13.5983C39.3549 14.3016 39.75 15.2554 39.75 16.25V17H32.25V16.25ZM41.25 20.75C41.25 22.1424 40.6969 23.4777 39.7123 24.4623C38.7277 25.4469 37.3924 26 36 26C34.6076 26 33.2723 25.4469 32.2877 24.4623C31.3031 23.4777 30.75 22.1424 30.75 20.75V20C30.75 19.8011 30.829 19.6103 30.9697 19.4697C31.1103 19.329 31.3011 19.25 31.5 19.25C31.6989 19.25 31.8897 19.329 32.0303 19.4697C32.171 19.6103 32.25 19.8011 32.25 20V20.75C32.25 21.7446 32.6451 22.6984 33.3483 23.4017C34.0516 24.1049 35.0054 24.5 36 24.5C36.9946 24.5 37.9484 24.1049 38.6517 23.4017C39.3549 22.6984 39.75 21.7446 39.75 20.75V20C39.75 19.8011 39.829 19.6103 39.9697 19.4697C40.1103 19.329 40.3011 19.25 40.5 19.25C40.6989 19.25 40.8897 19.329 41.0303 19.4697C41.171 19.6103 41.25 19.8011 41.25 20V20.75Z" fill="white"/>
<path d="M70.3359 21.8418C70.3359 22.9421 70.196 23.9447 69.916 24.8496C69.6361 25.748 69.2194 26.5228 68.666 27.1738C68.1191 27.8184 67.4388 28.3164 66.625 28.668C65.8112 29.0195 64.8672 29.1953 63.793 29.1953C62.6862 29.1953 61.7194 29.0195 60.8926 28.668C60.0723 28.3164 59.3887 27.8151 58.8418 27.1641C58.3014 26.513 57.8945 25.735 57.6211 24.8301C57.3542 23.9251 57.2207 22.9225 57.2207 21.8223C57.2207 20.3639 57.4616 19.0846 57.9434 17.9844C58.4251 16.8841 59.1543 16.028 60.1309 15.416C61.1139 14.804 62.3444 14.498 63.8223 14.498C65.235 14.498 66.4232 14.8008 67.3867 15.4062C68.3568 16.0117 69.0892 16.8646 69.584 17.9648C70.0853 19.0586 70.3359 20.3509 70.3359 21.8418ZM58.9688 21.8418C58.9688 23.0527 59.1413 24.1009 59.4863 24.9863C59.8314 25.8717 60.3587 26.5553 61.0684 27.0371C61.7845 27.5189 62.6927 27.7598 63.793 27.7598C64.8997 27.7598 65.8047 27.5189 66.5078 27.0371C67.2174 26.5553 67.7415 25.8717 68.0801 24.9863C68.4186 24.1009 68.5879 23.0527 68.5879 21.8418C68.5879 19.9993 68.2005 18.5605 67.4258 17.5254C66.6576 16.4837 65.4564 15.9629 63.8223 15.9629C62.7155 15.9629 61.804 16.2005 61.0879 16.6758C60.3717 17.151 59.8379 17.8281 59.4863 18.707C59.1413 19.5794 58.9688 20.6243 58.9688 21.8418ZM79.4961 13.8047V18.1406C80.5573 18.2318 81.4818 18.5085 82.2695 18.9707C83.0573 19.4264 83.6693 20.0482 84.1055 20.8359C84.5417 21.6237 84.7598 22.5612 84.7598 23.6484C84.7598 24.7161 84.5482 25.6471 84.125 26.4414C83.7083 27.2357 83.1061 27.8639 82.3184 28.3262C81.5371 28.7884 80.5964 29.0651 79.4961 29.1562V33.8047H77.9141V29.1562C76.8529 29.0781 75.9284 28.8112 75.1406 28.3555C74.3594 27.8932 73.7507 27.265 73.3145 26.4707C72.8783 25.6764 72.6602 24.7357 72.6602 23.6484C72.6602 22.5612 72.8685 21.6237 73.2852 20.8359C73.7083 20.0417 74.3138 19.4167 75.1016 18.9609C75.8893 18.4987 76.8431 18.2253 77.9629 18.1406V13.8047H79.4961ZM77.9629 19.4883C77.1361 19.5599 76.4557 19.7682 75.9219 20.1133C75.388 20.4583 74.9909 20.9271 74.7305 21.5195C74.4766 22.112 74.3496 22.8216 74.3496 23.6484C74.3496 24.4753 74.4798 25.1882 74.7402 25.7871C75.0007 26.3796 75.3978 26.8483 75.9316 27.1934C76.4655 27.5384 77.1426 27.75 77.9629 27.8281V19.4883ZM79.4961 19.5078V27.8281C80.3164 27.7435 80.9902 27.5254 81.5176 27.1738C82.0514 26.8223 82.4453 26.3503 82.6992 25.7578C82.9596 25.1654 83.0898 24.4622 83.0898 23.6484C83.0898 22.4115 82.7936 21.4447 82.2012 20.748C81.6087 20.0449 80.707 19.6315 79.4961 19.5078ZM96.8203 23.6289C96.8203 24.5078 96.7064 25.2923 96.4785 25.9824C96.2507 26.6725 95.9219 27.2552 95.4922 27.7305C95.0625 28.2057 94.5417 28.5703 93.9297 28.8242C93.3242 29.0716 92.6374 29.1953 91.8691 29.1953C91.153 29.1953 90.4954 29.0716 89.8965 28.8242C89.304 28.5703 88.7897 28.2057 88.3535 27.7305C87.9238 27.2552 87.5885 26.6725 87.3477 25.9824C87.1133 25.2923 86.9961 24.5078 86.9961 23.6289C86.9961 22.457 87.1947 21.4609 87.5918 20.6406C87.9889 19.8138 88.5553 19.1855 89.291 18.7559C90.0332 18.3197 90.9154 18.1016 91.9375 18.1016C92.9141 18.1016 93.7669 18.3197 94.4961 18.7559C95.2318 19.1921 95.8014 19.8236 96.2051 20.6504C96.6152 21.4707 96.8203 22.4635 96.8203 23.6289ZM88.6758 23.6289C88.6758 24.4883 88.7897 25.2337 89.0176 25.8652C89.2454 26.4967 89.597 26.985 90.0723 27.3301C90.5475 27.6751 91.1595 27.8477 91.9082 27.8477C92.6504 27.8477 93.2591 27.6751 93.7344 27.3301C94.2161 26.985 94.571 26.4967 94.7988 25.8652C95.0267 25.2337 95.1406 24.4883 95.1406 23.6289C95.1406 22.776 95.0267 22.0404 94.7988 21.4219C94.571 20.7969 94.2194 20.3151 93.7441 19.9766C93.2689 19.638 92.6536 19.4688 91.8984 19.4688C90.7852 19.4688 89.9681 19.8366 89.4473 20.5723C88.9329 21.3079 88.6758 22.3268 88.6758 23.6289ZM104.652 18.1016C105.987 18.1016 107.051 18.5605 107.846 19.4785C108.64 20.3965 109.037 21.7767 109.037 23.6191C109.037 24.8366 108.855 25.8587 108.49 26.6855C108.126 27.5124 107.611 28.1374 106.947 28.5605C106.29 28.9837 105.512 29.1953 104.613 29.1953C104.047 29.1953 103.549 29.1204 103.119 28.9707C102.689 28.821 102.322 28.6191 102.016 28.3652C101.71 28.1113 101.456 27.8346 101.254 27.5352H101.137C101.156 27.7891 101.179 28.0951 101.205 28.4531C101.238 28.8112 101.254 29.1237 101.254 29.3906V33.7852H99.623V18.2969H100.961L101.176 19.8789H101.254C101.462 19.5534 101.716 19.2572 102.016 18.9902C102.315 18.7168 102.68 18.502 103.109 18.3457C103.546 18.1829 104.06 18.1016 104.652 18.1016ZM104.369 19.4688C103.627 19.4688 103.028 19.612 102.572 19.8984C102.123 20.1849 101.794 20.6146 101.586 21.1875C101.378 21.7539 101.267 22.4668 101.254 23.3262V23.6387C101.254 24.5436 101.352 25.3086 101.547 25.9336C101.749 26.5586 102.077 27.0339 102.533 27.3594C102.995 27.6849 103.614 27.8477 104.389 27.8477C105.053 27.8477 105.606 27.6686 106.049 27.3105C106.492 26.9525 106.82 26.4544 107.035 25.8164C107.257 25.1719 107.367 24.4329 107.367 23.5996C107.367 22.3366 107.12 21.334 106.625 20.5918C106.137 19.8431 105.385 19.4688 104.369 19.4688ZM123.168 18.2969V29H121.703V22.0273C121.703 21.7409 121.71 21.4512 121.723 21.1582C121.742 20.8587 121.765 20.5592 121.791 20.2598H121.732L118.178 29H116.801L113.334 20.2598H113.275C113.295 20.5592 113.308 20.8587 113.314 21.1582C113.327 21.4512 113.334 21.7604 113.334 22.0859V29H111.859V18.2969H114.037L117.494 27.0469L121 18.2969H123.168ZM134.564 29H132.914V19.6543H129.662C129.532 21.3405 129.366 22.7858 129.164 23.9902C128.969 25.1882 128.721 26.168 128.422 26.9297C128.129 27.6849 127.771 28.2415 127.348 28.5996C126.931 28.9512 126.433 29.127 125.854 29.127C125.678 29.127 125.512 29.1172 125.355 29.0977C125.199 29.0781 125.066 29.0456 124.955 29V27.7695C125.04 27.7956 125.128 27.8151 125.219 27.8281C125.316 27.8411 125.417 27.8477 125.521 27.8477C125.814 27.8477 126.081 27.7272 126.322 27.4863C126.57 27.2389 126.791 26.8678 126.986 26.373C127.188 25.8783 127.367 25.2533 127.523 24.498C127.68 23.7363 127.816 22.8411 127.934 21.8125C128.057 20.7773 128.165 19.6055 128.256 18.2969H134.564V29ZM142.104 18.1016C143.015 18.1016 143.796 18.3034 144.447 18.707C145.098 19.1107 145.596 19.6771 145.941 20.4062C146.286 21.1289 146.459 21.9753 146.459 22.9453V23.9512H139.066C139.086 25.2077 139.398 26.1647 140.004 26.8223C140.609 27.4798 141.462 27.8086 142.562 27.8086C143.24 27.8086 143.839 27.7467 144.359 27.623C144.88 27.4993 145.421 27.3171 145.98 27.0762V28.502C145.44 28.7428 144.903 28.9186 144.369 29.0293C143.842 29.14 143.217 29.1953 142.494 29.1953C141.465 29.1953 140.567 28.987 139.799 28.5703C139.037 28.1471 138.445 27.5286 138.021 26.7148C137.598 25.901 137.387 24.9049 137.387 23.7266C137.387 22.5742 137.579 21.5781 137.963 20.7383C138.354 19.8919 138.9 19.2409 139.604 18.7852C140.313 18.3294 141.146 18.1016 142.104 18.1016ZM142.084 19.4297C141.218 19.4297 140.528 19.7129 140.014 20.2793C139.499 20.8457 139.193 21.6367 139.096 22.6523H144.76C144.753 22.0143 144.652 21.4544 144.457 20.9727C144.268 20.4844 143.979 20.1068 143.588 19.8398C143.197 19.5664 142.696 19.4297 142.084 19.4297ZM150.844 18.2969V22.7891H156.811V18.2969H158.432V29H156.811V24.166H150.844V29H149.213V18.2969H150.844ZM163.412 18.2969V25.0254C163.412 25.1556 163.409 25.3249 163.402 25.5332C163.396 25.735 163.386 25.9531 163.373 26.1875C163.36 26.4154 163.347 26.6367 163.334 26.8516C163.327 27.0599 163.318 27.2324 163.305 27.3691L169.145 18.2969H171.137V29H169.623V22.4375C169.623 22.2292 169.626 21.9622 169.633 21.6367C169.639 21.3112 169.649 20.9922 169.662 20.6797C169.675 20.3607 169.685 20.1133 169.691 19.9375L163.871 29H161.869V18.2969H163.412ZM178.705 18.1016C179.617 18.1016 180.398 18.3034 181.049 18.707C181.7 19.1107 182.198 19.6771 182.543 20.4062C182.888 21.1289 183.061 21.9753 183.061 22.9453V23.9512H175.668C175.688 25.2077 176 26.1647 176.605 26.8223C177.211 27.4798 178.064 27.8086 179.164 27.8086C179.841 27.8086 180.44 27.7467 180.961 27.623C181.482 27.4993 182.022 27.3171 182.582 27.0762V28.502C182.042 28.7428 181.505 28.9186 180.971 29.0293C180.443 29.14 179.818 29.1953 179.096 29.1953C178.067 29.1953 177.169 28.987 176.4 28.5703C175.639 28.1471 175.046 27.5286 174.623 26.7148C174.2 25.901 173.988 24.9049 173.988 23.7266C173.988 22.5742 174.18 21.5781 174.564 20.7383C174.955 19.8919 175.502 19.2409 176.205 18.7852C176.915 18.3294 177.748 18.1016 178.705 18.1016ZM178.686 19.4297C177.82 19.4297 177.13 19.7129 176.615 20.2793C176.101 20.8457 175.795 21.6367 175.697 22.6523H181.361C181.355 22.0143 181.254 21.4544 181.059 20.9727C180.87 20.4844 180.58 20.1068 180.189 19.8398C179.799 19.5664 179.298 19.4297 178.686 19.4297Z" fill="white"/>
</svg>
